<svg width="22" height="22" viewBox="0 0 22 22" fill="none" xmlns="http://www.w3.org/2000/svg">
<path d="M15.5859 10.9987C15.5859 13.53 13.5339 15.582 11.0026 15.582C8.4713 15.582 6.41927 13.53 6.41927 10.9987C6.41927 8.46739 8.4713 6.41536 11.0026 6.41536C13.5339 6.41536 15.5859 8.46739 15.5859 10.9987Z" fill="white"/>
<path fill-rule="evenodd" clip-rule="evenodd" d="M11.0026 1.14453C11.3823 1.14453 11.6901 1.45234 11.6901 1.83203V3.66536C11.6901 4.04506 11.3823 4.35286 11.0026 4.35286C10.6229 4.35286 10.3151 4.04506 10.3151 3.66536V1.83203C10.3151 1.45234 10.6229 1.14453 11.0026 1.14453ZM3.36553 3.40511C3.62174 3.12489 4.05661 3.10542 4.33683 3.36163L6.37368 5.22391C6.6539 5.48012 6.67337 5.91499 6.41716 6.19521C6.16095 6.47544 5.72609 6.49491 5.44586 6.2387L3.40902 4.37641C3.12879 4.1202 3.10932 3.68534 3.36553 3.40511ZM18.6397 3.40511C18.8959 3.68534 18.8764 4.1202 18.5962 4.37641L16.5593 6.2387C16.2791 6.49491 15.8443 6.47544 15.588 6.19521C15.3318 5.91499 15.3513 5.48012 15.6315 5.22391L17.6684 3.36163C17.9486 3.10542 18.3835 3.12489 18.6397 3.40511ZM1.14844 10.9987C1.14844 10.619 1.45624 10.3112 1.83594 10.3112H3.66927C4.04897 10.3112 4.35677 10.619 4.35677 10.9987C4.35677 11.3784 4.04897 11.6862 3.66927 11.6862H1.83594C1.45624 11.6862 1.14844 11.3784 1.14844 10.9987ZM17.6484 10.9987C17.6484 10.619 17.9562 10.3112 18.3359 10.3112H20.1693C20.549 10.3112 20.8568 10.619 20.8568 10.9987C20.8568 11.3784 20.549 11.6862 20.1693 11.6862H18.3359C17.9562 11.6862 17.6484 11.3784 17.6484 10.9987ZM15.6093 15.6051C15.8778 15.3366 16.3131 15.3367 16.5816 15.6052L18.6184 17.6423C18.8869 17.9108 18.8869 18.3461 18.6184 18.6145C18.3499 18.883 17.9146 18.883 17.6461 18.6145L15.6093 16.5774C15.3408 16.3089 15.3408 15.8736 15.6093 15.6051ZM6.39605 15.6053C6.66453 15.8737 6.66453 16.309 6.39605 16.5775L4.35901 18.6146C4.09053 18.883 3.65522 18.883 3.38674 18.6146C3.11825 18.3461 3.11825 17.9108 3.38674 17.6423L5.42378 15.6053C5.69226 15.3368 6.12756 15.3368 6.39605 15.6053ZM11.0026 17.6445C11.3823 17.6445 11.6901 17.9523 11.6901 18.332V20.1654C11.6901 20.5451 11.3823 20.8529 11.0026 20.8529C10.6229 20.8529 10.3151 20.5451 10.3151 20.1654V18.332C10.3151 17.9523 10.6229 17.6445 11.0026 17.6445Z" fill="white"/>
</svg>
